
<svg width="23px" height="38px" viewBox="0 0 23 38" version="1.1" xmlns="http://www.w3.org/2000/svg" xmlns:xlink="http://www.w3.org/1999/xlink">
    <g stroke="none" stroke-width="1" fill="none" fill-rule="evenodd">
        <path fill="#FFFFFF" d="M11.5,10.757 C10.8288157,10.7561909 10.2232706,11.1598798 9.96585862,11.7797411 C9.70844666,12.3996025 9.84988957,13.1134957 10.3242025,13.5883812 C10.7985155,14.0632667 11.5122376,14.2055706 12.132409,13.9489066 C12.7525804,13.6922425 13.1569995,13.0871848 13.157,12.416 C13.1564501,11.500768 12.4152307,10.7586539 11.5,10.757 L11.5,10.757 Z M10.546,0.993 C4.59385817,1.4764594 0.00745941488,6.44426074 1.13686838e-13,12.416 L1.13686838e-13,26.49 C1.13686838e-13,32.8412746 5.14872538,37.99 11.5,37.99 C17.8512746,37.99 23,32.8412746 23,26.49 L23,12.416 C22.9897123,6.44573993 18.4053959,1.47972328 12.455,0.993 L10.546,0.993 Z M11.501,36.093 C6.2041814,36.0841798 1.91385211,31.7898245 1.91,26.493 L1.91,12.416 C1.91,7.11903696 6.20403696,2.825 11.501,2.825 C16.797963,2.825 21.092,7.11903696 21.092,12.416 L21.092,26.49 C21.0886979,31.7876047 16.7975993,36.0827296 11.5,36.091 L11.501,36.093 Z"></path>
    </g>
</svg>
